<mxfile host="app.diagrams.net" modified="2023-11-15T16:20:21.426Z" agent="Mozilla/5.0 (Windows NT 10.0; Win64; x64) AppleWebKit/537.36 (KHTML, like Gecko) Chrome/119.0.0.0 Safari/537.36 Edg/119.0.0.0" etag="eGmdMg5KmyDAHbIWkFjH" version="22.1.1" type="device">
  <diagram name="Страница — 1" id="tWADrYua3J7aemsQHT72">
    <mxGraphModel dx="873" dy="562" grid="1" gridSize="10" guides="1" tooltips="1" connect="1" arrows="1" fold="1" page="1" pageScale="1" pageWidth="827" pageHeight="1169" math="0" shadow="0">
      <root>
        <mxCell id="0" />
        <mxCell id="1" parent="0" />
        <mxCell id="BOR6tkAjC7Up3nhjGEY3-1" value="&amp;lt;interface&amp;gt;&lt;br&gt;&lt;b&gt;CityRegion&lt;/b&gt;" style="swimlane;fontStyle=0;childLayout=stackLayout;horizontal=1;startSize=30;horizontalStack=0;resizeParent=1;resizeParentMax=0;resizeLast=0;collapsible=1;marginBottom=0;whiteSpace=wrap;html=1;" vertex="1" parent="1">
          <mxGeometry x="250" y="200" width="140" height="60" as="geometry" />
        </mxCell>
        <mxCell id="BOR6tkAjC7Up3nhjGEY3-2" value="displayInfo()" style="text;strokeColor=none;fillColor=none;align=left;verticalAlign=middle;spacingLeft=4;spacingRight=4;overflow=hidden;points=[[0,0.5],[1,0.5]];portConstraint=eastwest;rotatable=0;whiteSpace=wrap;html=1;" vertex="1" parent="BOR6tkAjC7Up3nhjGEY3-1">
          <mxGeometry y="30" width="140" height="30" as="geometry" />
        </mxCell>
        <mxCell id="BOR6tkAjC7Up3nhjGEY3-7" style="edgeStyle=orthogonalEdgeStyle;rounded=0;orthogonalLoop=1;jettySize=auto;html=1;" edge="1" parent="1" source="BOR6tkAjC7Up3nhjGEY3-5" target="BOR6tkAjC7Up3nhjGEY3-1">
          <mxGeometry relative="1" as="geometry" />
        </mxCell>
        <mxCell id="BOR6tkAjC7Up3nhjGEY3-5" value="&lt;b&gt;Mayor&lt;/b&gt;" style="rounded=0;whiteSpace=wrap;html=1;" vertex="1" parent="1">
          <mxGeometry x="520" y="215" width="120" height="30" as="geometry" />
        </mxCell>
        <mxCell id="BOR6tkAjC7Up3nhjGEY3-20" style="edgeStyle=orthogonalEdgeStyle;rounded=0;orthogonalLoop=1;jettySize=auto;html=1;endArrow=none;endFill=0;dashed=1;" edge="1" parent="1" source="BOR6tkAjC7Up3nhjGEY3-9">
          <mxGeometry relative="1" as="geometry">
            <mxPoint x="320" y="260" as="targetPoint" />
            <Array as="points">
              <mxPoint x="530" y="280" />
              <mxPoint x="320" y="280" />
            </Array>
          </mxGeometry>
        </mxCell>
        <mxCell id="BOR6tkAjC7Up3nhjGEY3-9" value="&lt;b&gt;AbstractCityRegion&lt;/b&gt;" style="swimlane;fontStyle=0;childLayout=stackLayout;horizontal=1;startSize=30;horizontalStack=0;resizeParent=1;resizeParentMax=0;resizeLast=0;collapsible=1;marginBottom=0;whiteSpace=wrap;html=1;" vertex="1" parent="1">
          <mxGeometry x="475" y="310" width="210" height="90" as="geometry" />
        </mxCell>
        <mxCell id="BOR6tkAjC7Up3nhjGEY3-10" value="+AbstractCityRegion(name)" style="text;strokeColor=none;fillColor=none;align=left;verticalAlign=middle;spacingLeft=4;spacingRight=4;overflow=hidden;points=[[0,0.5],[1,0.5]];portConstraint=eastwest;rotatable=0;whiteSpace=wrap;html=1;" vertex="1" parent="BOR6tkAjC7Up3nhjGEY3-9">
          <mxGeometry y="30" width="210" height="30" as="geometry" />
        </mxCell>
        <mxCell id="BOR6tkAjC7Up3nhjGEY3-11" value="+displayInfo()" style="text;strokeColor=none;fillColor=none;align=left;verticalAlign=middle;spacingLeft=4;spacingRight=4;overflow=hidden;points=[[0,0.5],[1,0.5]];portConstraint=eastwest;rotatable=0;whiteSpace=wrap;html=1;" vertex="1" parent="BOR6tkAjC7Up3nhjGEY3-9">
          <mxGeometry y="60" width="210" height="30" as="geometry" />
        </mxCell>
        <mxCell id="BOR6tkAjC7Up3nhjGEY3-13" style="edgeStyle=orthogonalEdgeStyle;rounded=0;orthogonalLoop=1;jettySize=auto;html=1;entryX=1.018;entryY=0.8;entryDx=0;entryDy=0;entryPerimeter=0;endArrow=open;endFill=0;startArrow=diamondThin;startFill=0;" edge="1" parent="1" source="BOR6tkAjC7Up3nhjGEY3-9" target="BOR6tkAjC7Up3nhjGEY3-2">
          <mxGeometry relative="1" as="geometry" />
        </mxCell>
        <mxCell id="BOR6tkAjC7Up3nhjGEY3-18" style="edgeStyle=orthogonalEdgeStyle;rounded=0;orthogonalLoop=1;jettySize=auto;html=1;dashed=1;endArrow=block;endFill=0;" edge="1" parent="1" source="BOR6tkAjC7Up3nhjGEY3-14" target="BOR6tkAjC7Up3nhjGEY3-1">
          <mxGeometry relative="1" as="geometry" />
        </mxCell>
        <mxCell id="BOR6tkAjC7Up3nhjGEY3-14" value="&lt;b&gt;Region&lt;/b&gt;" style="swimlane;fontStyle=0;childLayout=stackLayout;horizontal=1;startSize=30;horizontalStack=0;resizeParent=1;resizeParentMax=0;resizeLast=0;collapsible=1;marginBottom=0;whiteSpace=wrap;html=1;" vertex="1" parent="1">
          <mxGeometry x="225" y="290" width="190" height="120" as="geometry" />
        </mxCell>
        <mxCell id="BOR6tkAjC7Up3nhjGEY3-15" value="-components: List&amp;lt;CityRegion&amp;gt;" style="text;strokeColor=none;fillColor=none;align=left;verticalAlign=middle;spacingLeft=4;spacingRight=4;overflow=hidden;points=[[0,0.5],[1,0.5]];portConstraint=eastwest;rotatable=0;whiteSpace=wrap;html=1;" vertex="1" parent="BOR6tkAjC7Up3nhjGEY3-14">
          <mxGeometry y="30" width="190" height="30" as="geometry" />
        </mxCell>
        <mxCell id="BOR6tkAjC7Up3nhjGEY3-16" value="+addComponent()&lt;br&gt;+removeComponent()" style="text;strokeColor=none;fillColor=none;align=left;verticalAlign=middle;spacingLeft=4;spacingRight=4;overflow=hidden;points=[[0,0.5],[1,0.5]];portConstraint=eastwest;rotatable=0;whiteSpace=wrap;html=1;" vertex="1" parent="BOR6tkAjC7Up3nhjGEY3-14">
          <mxGeometry y="60" width="190" height="30" as="geometry" />
        </mxCell>
        <mxCell id="BOR6tkAjC7Up3nhjGEY3-17" value="+displayInfo()" style="text;strokeColor=none;fillColor=none;align=left;verticalAlign=middle;spacingLeft=4;spacingRight=4;overflow=hidden;points=[[0,0.5],[1,0.5]];portConstraint=eastwest;rotatable=0;whiteSpace=wrap;html=1;" vertex="1" parent="BOR6tkAjC7Up3nhjGEY3-14">
          <mxGeometry y="90" width="190" height="30" as="geometry" />
        </mxCell>
        <mxCell id="BOR6tkAjC7Up3nhjGEY3-25" style="edgeStyle=orthogonalEdgeStyle;rounded=0;orthogonalLoop=1;jettySize=auto;html=1;endArrow=block;endFill=0;" edge="1" parent="1" source="BOR6tkAjC7Up3nhjGEY3-21" target="BOR6tkAjC7Up3nhjGEY3-14">
          <mxGeometry relative="1" as="geometry" />
        </mxCell>
        <mxCell id="BOR6tkAjC7Up3nhjGEY3-21" value="&lt;b&gt;City&lt;/b&gt;" style="swimlane;fontStyle=0;childLayout=stackLayout;horizontal=1;startSize=30;horizontalStack=0;resizeParent=1;resizeParentMax=0;resizeLast=0;collapsible=1;marginBottom=0;whiteSpace=wrap;html=1;" vertex="1" parent="1">
          <mxGeometry x="250" y="440" width="140" height="60" as="geometry" />
        </mxCell>
        <mxCell id="BOR6tkAjC7Up3nhjGEY3-22" value="+displayInfo()" style="text;strokeColor=none;fillColor=none;align=left;verticalAlign=middle;spacingLeft=4;spacingRight=4;overflow=hidden;points=[[0,0.5],[1,0.5]];portConstraint=eastwest;rotatable=0;whiteSpace=wrap;html=1;" vertex="1" parent="BOR6tkAjC7Up3nhjGEY3-21">
          <mxGeometry y="30" width="140" height="30" as="geometry" />
        </mxCell>
      </root>
    </mxGraphModel>
  </diagram>
</mxfile>
